<svg xmlns="http://www.w3.org/2000/svg" fill="none" viewBox="-0.5 -0.5 14 14" height="14" width="14"><g id="add-layer-2--layer-add-design-plus-layers-square-box"><path id="Vector" fill="#111828" d="M8.821428571428571 3.25h-7.428571428571429a0.9285714285714286 0.9285714285714286 0 0 0 -0.9285714285714286 0.9285714285714286v7.428571428571429a0.9285714285714286 0.9285714285714286 0 0 0 0.9285714285714286 0.9285714285714286h7.428571428571429a0.9285714285714286 0.9285714285714286 0 0 0 0.9285714285714286 -0.9285714285714286v-7.428571428571429a0.9285714285714286 0.9285714285714286 0 0 0 -0.9285714285714286 -0.9285714285714286Z" stroke-width="1"></path><path id="Vector_2" stroke="#999aa1" stroke-linecap="round" stroke-linejoin="round" d="M8.821428571428571 3.25h-7.428571428571429a0.9285714285714286 0.9285714285714286 0 0 0 -0.9285714285714286 0.9285714285714286v7.428571428571429a0.9285714285714286 0.9285714285714286 0 0 0 0.9285714285714286 0.9285714285714286h7.428571428571429a0.9285714285714286 0.9285714285714286 0 0 0 0.9285714285714286 -0.9285714285714286v-7.428571428571429a0.9285714285714286 0.9285714285714286 0 0 0 -0.9285714285714286 -0.9285714285714286Z" stroke-width="1"></path><path id="Vector_3" stroke="#999aa1" stroke-linecap="round" stroke-linejoin="round" d="M3.25 0.4642857142857143h8.357142857142858a0.9285714285714286 0.9285714285714286 0 0 1 0.9285714285714286 0.9285714285714286v8.357142857142858" stroke-width="1"></path><path id="Vector_4" stroke="#999aa1" stroke-linecap="round" stroke-linejoin="round" d="M5.107142857142858 5.571428571428571v4.642857142857143" stroke-width="1"></path><path id="Vector_5" stroke="#999aa1" stroke-linecap="round" stroke-linejoin="round" d="M7.428571428571429 7.892857142857143H2.7857142857142856" stroke-width="1"></path></g></svg>