<svg xmlns="http://www.w3.org/2000/svg" fill="none" viewBox="-0.5 -0.5 24 24" height="24" width="24"><path stroke="#6300ff" stroke-linecap="round" stroke-linejoin="round" d="M16.170916666666667 7.666666666666667a3.83525 3.83525 0 0 0 -7.294833333333334 -0.4101666666666667 2.875 2.875 0 0 0 -4.36425 3.3829166666666666A2.3967916666666667 2.3967916666666667 0 0 0 1.4375 12.9375 2.3958333333333335 2.3958333333333335 0 0 0 3.8333333333333335 15.333333333333334h0.9583333333333334" stroke-width="1"></path><path stroke="#6300ff" stroke-linejoin="round" d="M19.645833333333336 16.291666666666668a1.9166666666666667 1.9166666666666667 0 1 0 -0.5443333333333333 -3.7547500000000005 2.3958333333333335 2.3958333333333335 0 0 0 -3.9483333333333337 -2.323958333333333 3.1155416666666667 3.1155416666666667 0 0 0 -6.035583333333333 1.3378333333333332A2.3958333333333335 2.3958333333333335 0 1 0 8.625 16.291666666666668h11.020833333333334Z" stroke-width="1"></path></svg>