<svg xmlns="http://www.w3.org/2000/svg" fill="none" viewBox="-1.5 -1.5 48 48" height="48" width="48"><g id="sunset--nature-sun-set-water-afternoon"><path id="Subtract" fill="#e5ff00" d="M32.14875 29.945625A12.135000000000002 12.135000000000002 0 0 0 34.6875 22.5c0 -6.731249999999999 -5.456250000000001 -12.1875 -12.1875 -12.1875s-12.1875 5.456250000000001 -12.1875 12.1875c0 2.803125 0.946875 5.386875000000001 2.5378125 7.445625l0.110625 0.073125c0.9065624999999999 0.615 1.9425000000000001 0.91875 2.9765625 0.91875a5.2903125 5.2903125 0 0 0 2.9765625 -0.91875 6.429374999999999 6.429374999999999 0 0 1 7.171875 0c0.9065624999999999 0.615 1.9425000000000001 0.91875 2.9765625 0.91875a5.2903125 5.2903125 0 0 0 2.9765625 -0.91875l0.10968750000000001 -0.073125Z" stroke-width="3"></path><path id="Ellipse 18" stroke="#ffc300" stroke-linecap="round" stroke-linejoin="round" d="M34.099687499999995 26.25A12.178125 12.178125 0 0 0 34.6875 22.5c0 -6.731249999999999 -5.456250000000001 -12.1875 -12.1875 -12.1875s-12.1875 5.456250000000001 -12.1875 12.1875c0 1.3087499999999999 0.20625 2.56875 0.5878125 3.75" stroke-width="3"></path><path id="Vector 1080" stroke="#ffc300" stroke-linecap="round" stroke-linejoin="round" d="m22.5 2.8125 0 2.8125" stroke-width="3"></path><path id="Vector 1082" stroke="#ffc300" stroke-linecap="round" stroke-linejoin="round" d="M42.1875 22.5h-2.8125" stroke-width="3"></path><path id="Vector 1083" stroke="#ffc300" stroke-linecap="round" stroke-linejoin="round" d="m5.625 22.5 -2.8125 0" stroke-width="3"></path><path id="Vector 1085" stroke="#ffc300" stroke-linecap="round" stroke-linejoin="round" d="M10.5675 10.5684375 8.5790625 8.578125" stroke-width="3"></path><path id="Vector 1087" stroke="#ffc300" stroke-linecap="round" stroke-linejoin="round" d="m34.432500000000005 10.5684375 1.9884375 -1.989375" stroke-width="3"></path><path id="Vector" stroke="#ffc300" stroke-linecap="round" stroke-linejoin="round" d="M2.8125 42.1875c1.7718749999999999 0 3.5437499999999997 -0.52125 5.08125 -1.5656249999999998a2.6793750000000003 2.6793750000000003 0 0 1 2.9625000000000004 0A9.0403125 9.0403125 0 0 0 15.9375 42.1875c1.7718749999999999 0 3.5437499999999997 -0.52125 5.08125 -1.5656249999999998a2.6793750000000003 2.6793750000000003 0 0 1 2.9625000000000004 0A9.0403125 9.0403125 0 0 0 29.0625 42.1875c1.7718749999999999 0 3.5437499999999997 -0.52125 5.08125 -1.5656249999999998a2.6793750000000003 2.6793750000000003 0 0 1 2.9625000000000004 0A9.0403125 9.0403125 0 0 0 42.1875 42.1875" stroke-width="3"></path><path id="Vector_2" stroke="#ffc300" stroke-linecap="round" stroke-linejoin="round" d="M2.8125 34.6875c1.7718749999999999 0 3.5437499999999997 -0.52125 5.08125 -1.5656249999999998a2.6793750000000003 2.6793750000000003 0 0 1 2.9625000000000004 0A9.0403125 9.0403125 0 0 0 15.9375 34.6875c1.7718749999999999 0 3.5437499999999997 -0.52125 5.08125 -1.5656249999999998a2.6793750000000003 2.6793750000000003 0 0 1 2.9625000000000004 0A9.0403125 9.0403125 0 0 0 29.0625 34.6875c1.7718749999999999 0 3.5437499999999997 -0.52125 5.08125 -1.5656249999999998a2.6793750000000003 2.6793750000000003 0 0 1 2.9625000000000004 0A9.0403125 9.0403125 0 0 0 42.1875 34.6875" stroke-width="3"></path></g></svg>