<svg xmlns="http://www.w3.org/2000/svg" fill="none" viewBox="-0.5 -0.5 14 14" height="14" width="14"><g id="wrench--crescent-tool-construction-tools-wrench-setting-edit-adjust"><path id="Union" fill="#17cbeb" d="M12.452142857142858 3.3391428571428574a0.7057142857142857 0.7057142857142857 0 0 0 -0.325 -0.4735714285714286l-1.8571428571428572 1.8571428571428572a0.9285714285714286 0.9285714285714286 0 0 1 -1.3371428571428572 0l-0.7057142857142857 -0.6314285714285715a0.9285714285714286 0.9285714285714286 0 0 1 0 -1.3l1.8571428571428572 -1.8571428571428572a0.7057142857142857 0.7057142857142857 0 0 0 -0.44571428571428573 -0.3992857142857143 3.5285714285714285 3.5285714285714285 0 0 0 -3.9000000000000004 4.929785714285715L0.7567857142857143 10.448285714285715a0.9285714285714286 0.9285714285714286 0 0 0 0.013000000000000001 1.326l0.52 0.4995714285714286a0.9285714285714286 0.9285714285714286 0 0 0 1.2972142857142859 -0.009285714285714286l5.040285714285714 -4.986428571428572a3.537857142857143 3.537857142857143 0 0 0 4.824857142857143 -3.939Z" stroke-width="1"></path><path id="Union_2" stroke="#17cbeb" stroke-linecap="round" stroke-linejoin="round" d="M12.452142857142858 3.3391428571428574a0.7066428571428571 0.7066428571428571 0 0 0 -0.325 -0.4735714285714286l-1.8571428571428572 1.8571428571428572a0.9285714285714286 0.9285714285714286 0 0 1 -1.3371428571428572 0l-0.7057142857142857 -0.6314285714285715a0.9285714285714286 0.9285714285714286 0 0 1 0 -1.3l1.8571428571428572 -1.8571428571428572a0.7075714285714286 0.7075714285714286 0 0 0 -0.44571428571428573 -0.3992857142857143 3.5285714285714285 3.5285714285714285 0 0 0 -3.9000000000000004 4.929785714285715L0.7567857142857143 10.446428571428571a0.9285714285714286 0.9285714285714286 0 0 0 0.013000000000000001 1.3269285714285715l0.52 0.4995714285714286a0.9285714285714286 0.9285714285714286 0 0 0 1.2972142857142859 -0.009285714285714286l5.040285714285714 -4.986428571428572a3.537857142857143 3.537857142857143 0 0 0 4.824857142857143 -3.939Z" stroke-width="1"></path></g></svg>